<svg xmlns="http://www.w3.org/2000/svg" xml:lang="mul" width="652" height="340.2" x="0" y="0" version="1.1" viewBox="0 0 652 340.2"><g font-family="'Liberation Sans', Dyuthi, 'VL PGothic', sans-serif"><path d="M162.1 41.6c69.2 0 125.4 55.6 125.4 124.2S231.3 290 162 290A124.8 124.8 0 0 1 36.8 165.8c0-68.6 56-124.2 125.3-124.2z" fill="#00AEEF" fill-rule="evenodd" clip-rule="evenodd"/><path d="M162.1 41.6c69.2 0 125.4 55.6 125.4 124.2S231.3 290 162 290A124.8 124.8 0 0 1 36.8 165.8c0-68.6 56-124.2 125.3-124.2z" fill="none" stroke="#000" stroke-miterlimit="22.9" stroke-width=".6"/><path d="M182 145.8c6.5-1.6 6-4.2 10.4-7 5.1-3.2.2 9.3 6.8 5.2a19 19 0 0 1 21.3 1.4c8.2 6.7 25.1 22.1 31.7 24.7 34.8 13.9-12.6 50.4-17.3 62.8-5 13.3-32.4 22.1-42.9 32.7-4 4-7.7 13.5-8.6 13.5-22.8 0 28-59 7.2-70.9-14.6-8.2-17.7-19.6-17.7-34.8 0-5.7 6.9-10.8 6.9-15.3 0-2.4.8-20 2.1-12.3z" fill="#FFF200" fill-rule="evenodd" clip-rule="evenodd"/><path d="M182 145.8c6.5-1.6 6-4.2 10.4-7 5.1-3.2.2 9.3 6.8 5.2a19 19 0 0 1 21.3 1.4c8.2 6.7 25.1 22.1 31.7 24.7 34.8 13.9-12.6 50.4-17.3 62.8-5 13.3-32.4 22.1-42.9 32.7-4 4-7.7 13.5-8.6 13.5-22.8 0 28-59 7.2-70.9-14.6-8.2-17.7-19.6-17.7-34.8 0-5.7 6.9-10.8 6.9-15.3 0-2.4.8-20 2.1-12.3z" fill="none" stroke="#000" stroke-miterlimit="22.9" stroke-width=".6"/><path d="M177.2 145.4c-6.5-4.6-12.6.3-12.6-9.4 0-5.7-2.6-8-8.2-8-1.8 0-5.1-23.7-10.8-8.7-3.8 9.7-13.4-3.4-12.3-14.2 2-20.2 24.9-2.6 35.7-9.4 6.5-4.2 18-27 23.4-27 11.5 0 8.2 1 17.6-4 .7-.3-9-3.3-11.5-7.9-4.5-8 5-4.3-7.2-12-11.9-7.5-55.3-1.4-66.6 3.3-6 2.5-20.8 5-25.2 8.7-2.5 2 12.2 8.6 4.3 14.2-19.6 13.7 8.6 43.3 18.7 52.3 2.6 2.3 25.9 7.5 29.9 8 3.2.3 9 9.4 11.2 11.6 2 2 12.4 9.5 13.6 2.5z" fill="#FFF200" fill-rule="evenodd" clip-rule="evenodd"/><path d="M177.2 145.4c-6.5-4.6-12.6.3-12.6-9.4 0-5.7-2.6-8-8.2-8-1.8 0-5.1-23.7-10.8-8.7-3.8 9.7-13.4-3.4-12.3-14.2 2-20.2 24.9-2.6 35.7-9.4 6.5-4.2 18-27 23.4-27 11.5 0 8.2 1 17.6-4 .7-.3-9-3.3-11.5-7.9-4.5-8 5-4.3-7.2-12-11.9-7.5-55.3-1.4-66.6 3.3-6 2.5-20.8 5-25.2 8.7-2.5 2 12.2 8.6 4.3 14.2-19.6 13.7 8.6 43.3 18.7 52.3 2.6 2.3 25.9 7.5 29.9 8 3.2.3 9 9.4 11.2 11.6 2 2 12.4 9.5 13.6 2.5z" fill="none" stroke="#000" stroke-miterlimit="22.9" stroke-width=".6"/><path d="M161 113.5c4 0 7.5-.4 11.6-.4 3.5 0 5.4 3.6 9 4 3.1.4 5 2.9 7.5 4 3.2 1.4 15.6.5 10.5-1.1-6.4-2-14-3.1-20.2-6.2a33 33 0 0 0-11.5-3.6c-1.9-.2-4.4-.1-6.1.4-3.4.9-3.2-.5-.8 2.9z" fill="#FFF200" fill-rule="evenodd" clip-rule="evenodd"/><path d="M161 113.5c4 0 7.5-.4 11.6-.4 3.5 0 5.4 3.6 9 4 3.1.4 5 2.9 7.5 4 3.2 1.4 15.6.5 10.5-1.1-6.4-2-14-3.1-20.2-6.2a33 33 0 0 0-11.5-3.6c-1.9-.2-4.4-.1-6.1.4-3.4.9-3.2-.5-.8 2.9z" fill="none" stroke="#000" stroke-miterlimit="22.9" stroke-width=".6"/><path d="M165.4 97.8c1.3 2.2 1.9 2.9 2.5 5.1.3 1 0 1.4 1 2.2.5.3 1.4.7 2.2.7 1.2 0 1.1.1 1.1-1v-1.9c0-1-1-2.2-1-2.9v-1c0-1.6-.9-3-2.6-3h-2.2c-1.5 0-1 .5-1 1.8z" fill="#FFF200" fill-rule="evenodd" clip-rule="evenodd"/><path d="M165.4 97.8c1.3 2.2 1.9 2.9 2.5 5.1.3 1 0 1.4 1 2.2.5.3 1.4.7 2.2.7 1.2 0 1.1.1 1.1-1v-1.9c0-1-1-2.2-1-2.9v-1c0-1.6-.9-3-2.6-3h-2.2c-1.5 0-1 .5-1 1.8z" fill="none" stroke="#000" stroke-miterlimit="22.9" stroke-width=".6"/><path d="M101.3 99.7c-.8 1.5-1.8 3.5-1.8 5.4 0 1-.2 2.8.3 3.3 1 .8 2.2 1 2.2 2.2 0 .7 0 .4.3.7.6.5.3 1.2 1.1 1.4 1.4.4 3 .3 3.3-1.8a9 9 0 0 0-1.1-3.6c-.8-1.5-1-3.8-1-5.5-.3-1.8-2.4-2.4-3.3-2.1z" fill="#FFF200" fill-rule="evenodd" clip-rule="evenodd"/><path d="M101.3 99.7c-.8 1.5-1.8 3.5-1.8 5.4 0 1-.2 2.8.3 3.3 1 .8 2.2 1 2.2 2.2 0 .7 0 .4.3.7.6.5.3 1.2 1.1 1.4 1.4.4 3 .3 3.3-1.8a9 9 0 0 0-1.1-3.6c-.8-1.5-1-3.8-1-5.5-.3-1.8-2.4-2.4-3.3-2.1z" fill="none" stroke="#000" stroke-miterlimit="22.9" stroke-width=".6"/><path d="M161.5 42.8c65.8 0 119.2 54.7 119.2 122.3s-53.4 122.2-119.2 122.2S42.2 232.6 42.2 165.1 95.6 42.8 161.5 42.8z" fill="none" stroke="#000" stroke-miterlimit="22.9" stroke-width="1"/><path d="M161.5 43.2C219.8 43.2 267 98 267 165.5S219.8 288 161.5 288C103 288 55.9 233.1 55.9 165.5S103 43.2 161.5 43.2z" fill="none" stroke="#000" stroke-miterlimit="22.9" stroke-width="1"/><path d="M164 43.2c46.6 0 84.3 54.7 84.3 122.2S210.6 287.6 164 287.6 79.7 233 79.7 165.4 117.5 43.2 164 43.2z" fill="none" stroke="#000" stroke-miterlimit="22.9" stroke-width="1"/><path d="M163.2 42.9c29.8 0 54 54.9 54 122.5S193 288 163.1 288s-54-54.8-54-122.5S133.4 43 163.2 43z" fill="none" stroke="#000" stroke-miterlimit="22.9" stroke-width="1"/><path d="M164.6 42.6c11.1 0 20.1 54.9 20.1 122.5 0 67.7-9 122.5-20.1 122.5-11.1 0-20.2-54.8-20.2-122.5 0-67.6 9-122.5 20.2-122.5z" fill="none" stroke="#000" stroke-miterlimit="22.9" stroke-width="1"/><path d="M281.8 196c-85.1 3.7-165.5 3-241-2.3m231.2 30c-62.8 9.9-137.3 10.6-217.3 2.3m197.4 24.5a544.4 544.4 0 0 1-178.6.5M233 266.2a349.5 349.5 0 0 1-135.4 3.5m183-140.8c-126.9-6.8-206.6-6.8-239 0m223.1-31.2c-94-6.8-163-6.8-207.2 0m185-25.6c-62.5-9.7-117.2-9.7-164 0m132.8-20.4c-46-4-78.5-4-97 0" fill="none" stroke="#000" stroke-miterlimit="22.9" stroke-width="1"/><path d="M286.4 164.1H37.6" fill="none" stroke="#000" stroke-dasharray="6 3" stroke-miterlimit="22.9" stroke-width="3"/><path d="M162 41.5c69 0 125 55.4 125 123.8 0 68.3-56 123.7-125 123.7S37.1 233.6 37.1 165.3c0-68.4 56-123.8 125-123.8z" fill="none" stroke="#000" stroke-miterlimit="22.9" stroke-width="3"/><path d="M497.6 43.7c68.3 0 123.8 55.2 123.8 123.4s-55.5 123.4-123.8 123.4c-68.4 0-123.8-55.3-123.8-123.4S429.2 43.7 497.6 43.7z" fill="#00AEEF" fill-rule="evenodd" clip-rule="evenodd"/><path d="M497.6 43.7c68.3 0 123.8 55.2 123.8 123.4s-55.5 123.4-123.8 123.4c-68.4 0-123.8-55.3-123.8-123.4S429.2 43.7 497.6 43.7z" fill="none" stroke="#000" stroke-miterlimit="22.9" stroke-width=".6"/><path d="M530 78.2c3.3.3 7.4 19 7.4 23.4 0 10.8-6.9.5-14.7.5-5.7 0-7 11.9-10 14.7-12.4 12.1-10.4 26.4 3.2 13.2 1-.8 7.9-18.3 7.9-11.7 0 15.5 10.3 17.2-10.5 25-13.7 5-14 12-15.7 25.3-.4 2.4-14-1.6-17.9.5-5.1 2.8 6 28.3 20.5 8.1 13.6-19 35.7 3 44.6-5.5 12-11.7 34.1 21 42 30.4 17 20.5 40.8-31 16.2-28-15.4 2-7.3 4.3 0-6 11.3-16 17.8 3.7 17.8-10.1 0-57.2-49-107-104.8-115.5A104 104 0 0 0 447 54c-.7.4-1.2-1.6-1.9-1.1-1.4.8-3.3 2.1-4.7 2.8-6 3-11 7-15.2 9.7-22.2 14.2-25.8 19.1-35.5 40-1.8 3.9-5.6 6.7-7.7 12-.5 1.3-.5 3.9-1.2 5.1l-.6 1.6c-11.5 24.4-7.3 47.4-3.3 77 1.6 11.7 14.3 29.4 20 39.2 12.7 22 39.5 28.2 15.7-.2-25.2-30-36.2-47.1-36.2-96.5 0-17 54.6-19.2 54.6-26.9 0-22.3 38-27.5 3-32-4.1-.5 7.9-5.8 10-6 27.2-3 20.8-9 15.3 11.6-2.8 10.2-20.3 18.5 1 15.8 25.6-3.3 15-12 25.7-28.5.4-.7-2.5-3.3-10.3-3.5-4.1 0-9.4 2.2-13 .4-5.6-2.7-9.1-13-9.2-17.4 0-4.6 4.5-8.5 8.4-10.3 5.5-2.4 9.8-.5 18.6.4 13.8 1.4 33 3.6 40 8.2 8.8 5.7 6 22.7 9.6 22.7z" fill="#FFF200" fill-rule="evenodd" clip-rule="evenodd"/><path d="M530 78.2c3.3.3 7.4 19 7.4 23.4 0 10.8-6.9.5-14.7.5-5.7 0-7 11.9-10 14.7-12.4 12.1-10.4 26.4 3.2 13.2 1-.8 7.9-18.3 7.9-11.7 0 15.5 10.3 17.2-10.5 25-13.7 5-14 12-15.7 25.3-.4 2.4-14-1.6-17.9.5-5.1 2.8 6 28.3 20.5 8.1 13.6-19 35.7 3 44.6-5.5 12-11.7 34.1 21 42 30.4 17 20.5 40.8-31 16.2-28-15.4 2-7.3 4.3 0-6 11.3-16 17.8 3.7 17.8-10.1 0-57.2-49-107-104.8-115.5A104 104 0 0 0 447 54c-.7.4-1.2-1.6-1.9-1.1-1.4.8-3.3 2.1-4.7 2.8-6 3-11 7-15.2 9.7-22.2 14.2-25.8 19.1-35.5 40-1.8 3.9-5.6 6.7-7.7 12-.5 1.3-.5 3.9-1.2 5.1l-.6 1.6c-11.5 24.4-7.3 47.4-3.3 77 1.6 11.7 14.3 29.4 20 39.2 12.7 22 39.5 28.2 15.7-.2-25.2-30-36.2-47.1-36.2-96.5 0-17 54.6-19.2 54.6-26.9 0-22.3 38-27.5 3-32-4.1-.5 7.9-5.8 10-6 27.2-3 20.8-9 15.3 11.6-2.8 10.2-20.3 18.5 1 15.8 25.6-3.3 15-12 25.7-28.5.4-.7-2.5-3.3-10.3-3.5-4.1 0-9.4 2.2-13 .4-5.6-2.7-9.1-13-9.2-17.4 0-4.6 4.5-8.5 8.4-10.3 5.5-2.4 9.8-.5 18.6.4 13.8 1.4 33 3.6 40 8.2 8.8 5.7 6 22.7 9.6 22.7z" fill="none" stroke="#000" stroke-miterlimit="22.9" stroke-width=".6"/><path d="M527.5 283.9c0-4.8 6.7-9.6 3.6-12.2-18-15.4-16.4-18.3-46.6-18.3-15.8 0-24.2-11.5-24.2-27.4 0-8.3 13.2-27.8 20-29.5 5-1.2 28.4-6.8 34-9.6 10-5.1 3.4 10.7 19.5 10.7 13.4 0 6.4-7.7 21.5-7.7 21.3 0 14.5 13.5 31.4 19.8 9.7 3.6 15-12.8 12.6 9.7-2.2 20.7-1.8 26.1-21.5 41.6a129 129 0 0 1-31 18.8c-6.3 2.5-12.3 5.3-19.3 4z" fill="#FFF200" fill-rule="evenodd" clip-rule="evenodd"/><path d="M527.5 283.9c0-4.8 6.7-9.6 3.6-12.2-18-15.4-16.4-18.3-46.6-18.3-15.8 0-24.2-11.5-24.2-27.4 0-8.3 13.2-27.8 20-29.5 5-1.2 28.4-6.8 34-9.6 10-5.1 3.4 10.7 19.5 10.7 13.4 0 6.4-7.7 21.5-7.7 21.3 0 14.5 13.5 31.4 19.8 9.7 3.6 15-12.8 12.6 9.7-2.2 20.7-1.8 26.1-21.5 41.6a129 129 0 0 1-31 18.8c-6.3 2.5-12.3 5.3-19.3 4z" fill="none" stroke="#000" stroke-miterlimit="22.9" stroke-width=".6"/><path d="M475 114.3c-1 2-1.5 2.7-.5 4 .6.9 1.2 1.7 1.6 2 .7.8 1 2.7 1 4.1 0 1.3 0 1-.5 1.6-.3.3-2.6 1.7-2.6 2v3.6h3.6c1.6 0 1.5-.3 2.7-1 .5-.4 1.2-1.8 1.5-2 1.3-1.3 0-3.3 0-5.2 0-1.9.7-6 0-7.6-.7-1.7-6.3-1-6.8-1.5z" fill="#FFF200" fill-rule="evenodd" clip-rule="evenodd"/><path d="M475 114.3c-1 2-1.5 2.7-.5 4 .6.9 1.2 1.7 1.6 2 .7.8 1 2.7 1 4.1 0 1.3 0 1-.5 1.6-.3.3-2.6 1.7-2.6 2v3.6h3.6c1.6 0 1.5-.3 2.7-1 .5-.4 1.2-1.8 1.5-2 1.3-1.3 0-3.3 0-5.2 0-1.9.7-6 0-7.6-.7-1.7-6.3-1-6.8-1.5z" fill="none" stroke="#000" stroke-miterlimit="22.9" stroke-width=".6"/><path d="M490.7 133c-.6 3-.6 5 0 7.7.5 2 2.1 2.1 2.7 3.5 1 2.7-1.5 3-1.6 4.1-.2 1.1-.2 3 0 4 .1 1.1 1.3 1.3 2.6 1 .6 0 3-10.8 3.2-12.1.2-1.6-3.6-10.2-6.9-8.1z" fill="#FFF200" fill-rule="evenodd" clip-rule="evenodd"/><path d="M490.7 133c-.6 3-.6 5 0 7.7.5 2 2.1 2.1 2.7 3.5 1 2.7-1.5 3-1.6 4.1-.2 1.1-.2 3 0 4 .1 1.1 1.3 1.3 2.6 1 .6 0 3-10.8 3.2-12.1.2-1.6-3.6-10.2-6.9-8.1z" fill="none" stroke="#000" stroke-miterlimit="22.9" stroke-width=".6"/><path d="M482.4 147.3c.2-.8.6-1.3 1-2 .2-.3-.2-.8 0-1l.5-.6.6-.5c.6-.6-.7-.8.5-1 1.4-.2 2 .2 2 1.5v1c.5.7.6.6.6 2 0 .8.2 1.1-.5 1.6-.8.5-1-.3-1.6.5-.2.3.2.8 0 1-.4.4-1.4-.2-1.6-.5 0-.2-.4-1.7-1.5-2z" fill="#FFF200" fill-rule="evenodd" clip-rule="evenodd"/><path d="M482.4 147.3c.2-.8.6-1.3 1-2 .2-.3-.2-.8 0-1l.5-.6.6-.5c.6-.6-.7-.8.5-1 1.4-.2 2 .2 2 1.5v1c.5.7.6.6.6 2 0 .8.2 1.1-.5 1.6-.8.5-1-.3-1.6.5-.2.3.2.8 0 1-.4.4-1.4-.2-1.6-.5 0-.2-.4-1.7-1.5-2z" fill="none" stroke="#000" stroke-miterlimit="22.9" stroke-width=".6"/><path d="M608.2 208.2c.3-1-.6-2.4.6-3 1.8-1 .5.4 1.5-.5.3-.3.7-.3 1-1l.6-1c.3-.4.2-.8.5-1 .3-.4.7-.4 1-.6 2-1 2.2-.2 2.2 2 0 1.8 0 .3-.5 1-.2.3.1 1.3 0 1.6-.5.7-.6-.8-.6 1 0 .3.2.7 0 1l-1 1-1 .5c-1 .9-.2 0-1.1.5-.3.2-.2.5-.5.5-1.2.2-2.5 0-2.7-2z" fill="#FFF200" fill-rule="evenodd" clip-rule="evenodd"/><path d="M608.2 208.2c.3-1-.6-2.4.6-3 1.8-1 .5.4 1.5-.5.3-.3.7-.3 1-1l.6-1c.3-.4.2-.8.5-1 .3-.4.7-.4 1-.6 2-1 2.2-.2 2.2 2 0 1.8 0 .3-.5 1-.2.3.1 1.3 0 1.6-.5.7-.6-.8-.6 1 0 .3.2.7 0 1l-1 1-1 .5c-1 .9-.2 0-1.1.5-.3.2-.2.5-.5.5-1.2.2-2.5 0-2.7-2z" fill="none" stroke="#000" stroke-miterlimit="22.9" stroke-width=".6"/><path d="M500.5 44.3c36.2 0 65.6 19.4 65.6 43.4s-29.4 43.5-65.6 43.5c-36.2 0-65.6-19.5-65.6-43.5s29.4-43.4 65.6-43.4z" fill="none" stroke="#000" stroke-miterlimit="22.9" stroke-width="1"/><path d="M498.3 55c19.5 0 35.4 9.7 35.4 21.6 0 12-15.9 21.6-35.4 21.6-19.6 0-35.5-9.6-35.5-21.6 0-11.9 15.9-21.5 35.5-21.5z" fill="none" stroke="#000" stroke-miterlimit="22.9" stroke-width="1"/><path d="M497.4 42c69 0 125 55.4 125 123.8s-56 123.8-125 123.8-125-55.5-125-123.8S428.5 42 497.5 42z" fill="none" stroke="#000" stroke-miterlimit="22.9" stroke-width="3"/><path d="M499.1 75.3v214.3" fill="none" stroke="#000" stroke-dasharray="6 3" stroke-miterlimit="22.9" stroke-width="3"/><path d="M526.6 285.6c14.7-42.6 5.9-116.2-27.5-214" fill="none" stroke="#000" stroke-miterlimit="22.9" stroke-width="1"/><path d="M499.7 71.5c53.3 75.5 71.7 145.6 54 205.3" fill="none" stroke="#000" stroke-miterlimit="22.9" stroke-width="1"/><path d="M500.2 71c66.7 54 94.5 118.4 83.1 184.8" fill="none" stroke="#000" stroke-miterlimit="22.9" stroke-width="1"/><path d="M602 231.7C616.3 177 582.3 117.3 501 71" fill="none" stroke="#000" stroke-miterlimit="22.9" stroke-width="1"/><path d="M501 70.7C581.4 95.6 620 146 617 195" fill="none" stroke="#000" stroke-miterlimit="22.9" stroke-width="1"/><path d="M620.8 150c-24-50-69-80.5-120.3-79.9" fill="none" stroke="#000" stroke-miterlimit="22.9" stroke-width="1"/><path d="M607.3 105.7c-30.6-33.4-67.8-46.5-106.5-37.1 5.4-5.8 24.6-10.2 45-8.7 6.7.6 13.5 2.8 20 4.8 3.7 1.2 6.1 2.2 9.6 3" fill="none" stroke="#000" stroke-miterlimit="22.9" stroke-width="1"/><path d="M533 46.8c-16.8 6-29.8 15.7-33.6 23.7m15-26.2a58.4 58.4 0 0 0-15.3 23m-19.8-24.2c14.3 6 18.8 16.2 19.2 25.9m-42.2-20.6c20.2-.2 32.8 8 40.2 18.9m.3.7c-37-13-69.1-6.8-96.5 18.6" fill="none" stroke="#000" stroke-miterlimit="22.9" stroke-width="1"/><path d="M497.1 69.3c-34.7-7.6-71.3 3.2-103.9 27.8" fill="none" stroke="#000" stroke-miterlimit="22.9" stroke-width="1"/><path d="M498.3 69.6c-23.9-4.2-52 6.3-82 24.4-12.8 7.7-30.5 27.7-39.7 41" fill="none" stroke="#000" stroke-miterlimit="22.9" stroke-width="1"/><path d="M495.1 71.1c-42.6 14.4-92.7 21.3-121 108.6" fill="none" stroke="#000" stroke-miterlimit="22.9" stroke-width="1"/><path d="M385.8 219.4c.4-56.7 38.5-112.5 111.9-149.6-61.8 47.6-92.5 112.5-88.6 182.6" fill="none" stroke="#000" stroke-miterlimit="22.9" stroke-width="1"/><path d="M497.9 70.4c-54 72.1-72.9 144-58.5 205.1" fill="none" stroke="#000" stroke-miterlimit="22.9" stroke-width="1"/><path d="M498.2 71.3c-31.1 90.3-39.4 163.5-25.9 215.4" fill="none" stroke="#000" stroke-miterlimit="22.9" stroke-width="1"/><path d="M460 49a99.6 99.6 0 0 0-35.9 21.6 52.3 52.3 0 0 0-15.3 33.4 50 50 0 0 0 16.5 37.3 95.9 95.9 0 0 0 50.4 24.3 132 132 0 0 0 70.3-5.5 72.4 72.4 0 0 0 43.3-37.8c6.8-18.8 3-36.3-11.5-52.5" fill="none" stroke="#000" stroke-miterlimit="22.9" stroke-width="1"/><path d="M609.4 111.5c5.8 24.3-4.2 47-30.2 68.2-20.7 14.6-47.2 22.6-79.5 23.9a140 140 0 0 1-81.9-24.6c-27.3-21.8-36.6-46.3-28.1-73.6" fill="none" stroke="#000" stroke-miterlimit="22.9" stroke-width="1"/><path d="M377.2 133.7c-5 30.4 6 56.1 33.3 77.2 26 17.4 55.5 26 88.4 26 35-.8 63.6-9.5 86-26.2a80 80 0 0 0 36.2-65.5" fill="none" stroke="#000" stroke-miterlimit="22.9" stroke-width="1"/><path d="M620.8 184c-7.6 24.4-19.2 41.7-34.9 52.2a150.8 150.8 0 0 1-86.6 27.4c-26.1-.9-47.2-5.1-63.2-12.5a106 106 0 0 1-49.5-41.1 115.1 115.1 0 0 1-12.8-27" fill="none" stroke="#000" stroke-miterlimit="22.9" stroke-width="1"/><path d="M391.8 228.6c15.8 20.2 31.5 33.4 47.2 39.6a128.2 128.2 0 0 0 60.9 12.9 120 120 0 0 0 56.8-12.7 119.2 119.2 0 0 0 51.7-45.3M498.8 41.7v26.8m-1.5-.4c-26.8-12.8-49-15.6-66.4-8.2m123-5.2c-17.5-2.7-33 2.7-55.1 14" fill="none" stroke="#000" stroke-miterlimit="22.9" stroke-width="1"/><g font-size="16"><switch transform="translate(125.3 320.8)"><text systemLanguage="en"><tspan>South Pole</tspan></text><text dx="25" systemLanguage="ja"><tspan>南極</tspan></text><text systemLanguage="ml"><tspan>ദക്ഷിണധ്രുവം</tspan></text><text systemLanguage="ar"><tspan>القطب الجنوبي</tspan></text><text><tspan>South Pole</tspan></text></switch><switch transform="translate(125.7 22.4)"><text systemLanguage="en"><tspan>North Pole</tspan></text><text dx="25" systemLanguage="ja"><tspan>北極</tspan></text><text systemLanguage="ml"><tspan>ഉത്തരധ്രുവം</tspan></text><text systemLanguage="ar"><tspan>القطب الشمالي</tspan></text><text><tspan>North Pole</tspan></text></switch><switch transform="translate(290.4 170.5)"><text systemLanguage="en"><tspan>Equator</tspan></text><text systemLanguage="ja"><tspan>赤道</tspan></text><text systemLanguage="ml"><tspan>ഭൂമധ്യരേഖ</tspan></text><text systemLanguage="ar"><tspan>خط الأستواء</tspan></text><text><tspan>Equator</tspan></text></switch><switch transform="translate(445.6 322.7)"><text systemLanguage="en"><tspan>Prime Meridian</tspan></text><text systemLanguage="ja"><tspan>本初子午線</tspan></text><text systemLanguage="ml"><tspan>ഗ്രീനിച്ച് രേഖ</tspan></text><text systemLanguage="ar"><tspan>خط الطول الأول</tspan></text><text><tspan>Prime Meridian</tspan></text></switch></g><g font-size="16"><switch transform="rotate(-60.3 104.2 43.9)"><text systemLanguage="en"><tspan>Latitude</tspan></text><text dx="13" dy="2" systemLanguage="ja"><tspan>緯度</tspan></text><text systemLanguage="ml"><tspan>അക്ഷാംശം</tspan></text><text systemLanguage="ar"><tspan>خط العرض</tspan></text><text><tspan>Latitude</tspan></text></switch><path d="m57.5 60.4-5.2 14.2-.2-.4-.1-.3-.2-.4-.2-.4-.1-.3-.2-.4-.2-.3-.2-.3-.2-.4-.3-.3-.2-.3-.2-.3-.3-.3-.2-.2-.3-.3-.2-.3-.3-.2-.3-.3-.3-.2-.3-.2-.3-.2-.3-.2-.3-.2-.4-.2-.3-.2-.4-.2-.3-.2-.4-.1-.4-.2-.3-.1-.4-.2h-.4l14-6.1zM52 64.8l1.4 1.4-1.1 1.2-1.2 1.3-1 1.2-1.2 1.4-1.1 1.3-1 1.4-1.2 1.4-1 1.4-1 1.5-1 1.4-1.1 1.5-1 1.6-1 1.5-1 1.6-1 1.6-1 1.7-.9 1.6-.9 1.7-1 1.7L33 96l-1 1.8-.8 1.8-.8 1.8-.9 1.8-.8 2-.9 1.8-.8 2-.8 2-.8 1.9-.7 2-.8 2-.7 2.1-2-.7.8-2 .8-2.1.8-2 .8-2 .8-2 .8-2 .8-1.9.9-1.9.9-1.9.8-1.8 1-1.8.8-1.8 1-1.8.9-1.7.9-1.7 1-1.7 1-1.7.9-1.6 1-1.6 1-1.6 1-1.6 1-1.5 1.1-1.5 1-1.5 1.2-1.4 1-1.4 1.1-1.4 1.2-1.4 1-1.4 1.2-1.3 1.2-1.3 1.2-1.2z"/></g><g font-size="16"><path d="m619 249.2-.7 15.2-.2-.4-.3-.3-.3-.3-.2-.3-.3-.3-.3-.2-.3-.3-.3-.3-.3-.2-.3-.2-.3-.3-.3-.2-.3-.2-.3-.1-.4-.2-.3-.2-.3-.2h-.4l-.3-.2-.4-.2h-.4l-.3-.2h-.4l-.4-.2h-.7l-.4-.1h-.4l-.4-.1h-1.2l11.4-10zm-4 5.9 1.9.8-1 1.9-1 1.8-.9 1.8-1 1.8-1 1.7-1.1 1.7-1.2 1.6-1 1.7-1.3 1.5-1.2 1.6-1.2 1.5-1.3 1.5-1.3 1.5-1.4 1.4-1.3 1.4-1.4 1.4-1.5 1.3-1.4 1.3-1.5 1.3-1.6 1.2-1.5 1.2-1.6 1.1-1.7 1.2-1.6 1-1.7 1.1-1.8 1-1.7 1-1.8 1-1.8 1-1.9.8-1.9.9-1.9.8-.8-1.8 2-.9 1.8-.8 1.8-.9 1.8-.9 1.7-1 1.7-.9 1.7-1 1.7-1 1.6-1 1.6-1.2 1.6-1.1 1.5-1.2 1.5-1.2 1.5-1.2 1.4-1.3 1.4-1.3 1.4-1.3 1.3-1.4 1.3-1.4 1.3-1.4 1.2-1.4 1.2-1.5 1.2-1.6 1.2-1.5 1.1-1.6 1-1.6 1.1-1.7 1-1.7 1-1.7 1-1.7 1-1.8.9-1.8z"/><switch transform="rotate(-38.2 748.7 -675.4)"><text systemLanguage="en"><tspan>Longitude</tspan></text><text dx="13" dy="-2" systemLanguage="ja"><tspan>緯度</tspan></text><text systemLanguage="ml"><tspan>രേഖാംശം</tspan></text><text systemLanguage="ar"><tspan>خط الطول</tspan></text><text><tspan>Longitude</tspan></text></switch></g><g font-size="13.7"><switch transform="translate(156.6 38.2)"><text systemLanguage="ar"><tspan>90°</tspan></text><text><tspan>90°</tspan></text></switch><switch transform="translate(93 53)"><text systemLanguage="ar"><tspan>60°</tspan></text><text><tspan>60°</tspan></text></switch><switch transform="translate(35.5 103)"><text systemLanguage="ar"><tspan>30°</tspan></text><text><tspan>30°</tspan></text></switch><switch transform="translate(22.6 169)"><text systemLanguage="ar"><tspan>0°</tspan></text><text><tspan>0°</tspan></text></switch><switch transform="translate(25.3 230.5)"><text systemLanguage="ar"><tspan>-30°</tspan></text><text><tspan>-30°</tspan></text></switch><switch transform="translate(66.2 278.8)"><text systemLanguage="ar"><tspan>-60°</tspan></text><text><tspan>-60°</tspan></text></switch><switch transform="translate(154.2 304.6)"><text systemLanguage="ar"><tspan>-90°</tspan></text><text><tspan>-90°</tspan></text></switch><switch transform="translate(496 306.4)"><text systemLanguage="ar"><tspan>0°</tspan></text><text><tspan>0°</tspan></text></switch><switch transform="translate(551.7 291.4)"><text systemLanguage="ar"><tspan>30°</tspan></text><text><tspan>30°</tspan></text></switch><switch transform="translate(600.6 250.5)"><text systemLanguage="ar"><tspan>60°</tspan></text><text><tspan>60°</tspan></text></switch><switch transform="translate(628 157)"><text systemLanguage="ar"><tspan>90°</tspan></text><text><tspan>90°</tspan></text></switch><switch transform="translate(583.6 75.8)"><text systemLanguage="ar"><tspan>120°</tspan></text><text><tspan>120°</tspan></text></switch><switch transform="translate(532.3 45)"><text systemLanguage="ar"><tspan>150°</tspan></text><text><tspan>150°</tspan></text></switch><switch transform="translate(488 38.3)"><text systemLanguage="ar"><tspan>180°</tspan></text><text><tspan>180°</tspan></text></switch><switch transform="translate(428 46.8)"><text systemLanguage="ar"><tspan>-150°</tspan></text><text><tspan>-150°</tspan></text></switch><switch transform="translate(374 81.4)"><text systemLanguage="ar"><tspan>-120°</tspan></text><text><tspan>-120°</tspan></text></switch><switch transform="translate(350.4 143)"><text systemLanguage="ar"><tspan>-90°</tspan></text><text><tspan>-90°</tspan></text></switch><switch transform="translate(366.6 236.6)"><text systemLanguage="ar"><tspan>-60°</tspan></text><text><tspan>-60°</tspan></text></switch><switch transform="translate(426.6 292.6)"><text systemLanguage="ar"><tspan>-30°</tspan></text><text><tspan>-30°</tspan></text></switch></g></g></svg>